<?xml version="1.0" encoding="UTF-8"?>
<svg xmlns="http://www.w3.org/2000/svg" viewBox="0 0 64 64" role="img" aria-label="Silence Remover">
  <defs>
    <linearGradient id="g" x1="0" y1="0" x2="1" y2="1">
      <stop offset="0%" stop-color="#17211e"/>
      <stop offset="100%" stop-color="#0b1110"/>
    </linearGradient>
    <linearGradient id="a" x1="0" y1="0" x2="0" y2="1">
      <stop offset="0%" stop-color="#d6ff4b"/>
      <stop offset="100%" stop-color="#7dffc3"/>
    </linearGradient>
  </defs>
  <rect width="64" height="64" rx="14.08" fill="url(#g)"/>
  <path d="M10.73 14.49 H10.73 Q11.97 14.49 11.97 15.73 V48.27 Q11.97 49.510000000000005 10.73 49.510000000000005 H10.73 Q9.49 49.510000000000005 9.49 48.27 V15.73 Q9.49 14.49 10.73 14.49 Z M14.28 20.88 H14.28 Q15.52 20.88 15.52 22.119999999999997 V41.87 Q15.52 43.11 14.28 43.11 H14.28 Q13.04 43.11 13.04 41.87 V22.119999999999997 Q13.04 20.88 14.28 20.88 Z M17.819999999999997 15.43 H17.82 Q19.06 15.43 19.06 16.669999999999998 V47.339999999999996 Q19.06 48.58 17.82 48.58 H17.819999999999997 Q16.58 48.58 16.58 47.339999999999996 V16.669999999999998 Q16.58 15.43 17.819999999999997 15.43 Z M21.369999999999997 19.36 H21.37 Q22.61 19.36 22.61 20.599999999999998 V43.4 Q22.61 44.64 21.37 44.64 H21.369999999999997 Q20.13 44.64 20.13 43.4 V20.599999999999998 Q20.13 19.36 21.369999999999997 19.36 Z M24.91 20.31 H24.910000000000004 Q26.150000000000002 20.31 26.150000000000002 21.549999999999997 V42.449999999999996 Q26.150000000000002 43.69 24.910000000000004 43.69 H24.91 Q23.67 43.69 23.67 42.449999999999996 V21.549999999999997 Q23.67 20.31 24.91 20.31 Z M28.45 29.5 H28.450000000000003 Q29.69 29.5 29.69 30.74 V33.269999999999996 Q29.69 34.51 28.450000000000003 34.51 H28.45 Q27.21 34.51 27.21 33.269999999999996 V30.74 Q27.21 29.5 28.45 29.5 Z M32 29.25 H32 Q33.24 29.25 33.24 30.49 V33.519999999999996 Q33.24 34.76 32 34.76 H32 Q30.76 34.76 30.76 33.519999999999996 V30.49 Q30.76 29.25 32 29.25 Z M35.54 30.12 H35.53999999999999 Q36.779999999999994 30.12 36.779999999999994 31.36 V32.65 Q36.779999999999994 33.89 35.53999999999999 33.89 H35.54 Q34.3 33.89 34.3 32.65 V31.36 Q34.3 30.12 35.54 30.12 Z M39.09 22.54 H39.089999999999996 Q40.33 22.54 40.33 23.779999999999998 V40.23 Q40.33 41.47 39.089999999999996 41.47 H39.09 Q37.85 41.47 37.85 40.23 V23.779999999999998 Q37.85 22.54 39.09 22.54 Z M42.63 20.22 H42.629999999999995 Q43.87 20.22 43.87 21.459999999999997 V42.529999999999994 Q43.87 43.769999999999996 42.629999999999995 43.769999999999996 H42.63 Q41.39 43.769999999999996 41.39 42.529999999999994 V21.459999999999997 Q41.39 20.22 42.63 20.22 Z M46.18 16.92 H46.17999999999999 Q47.419999999999995 16.92 47.419999999999995 18.16 V45.83 Q47.419999999999995 47.07 46.17999999999999 47.07 H46.18 Q44.94 47.07 44.94 45.83 V18.16 Q44.94 16.92 46.18 16.92 Z M49.72 15.89 H49.71999999999999 Q50.959999999999994 15.89 50.959999999999994 17.13 V46.87 Q50.959999999999994 48.11 49.71999999999999 48.11 H49.72 Q48.48 48.11 48.48 46.87 V17.13 Q48.48 15.89 49.72 15.89 Z M53.27 18.28 H53.269999999999996 Q54.51 18.28 54.51 19.52 V44.49 Q54.51 45.730000000000004 53.269999999999996 45.730000000000004 H53.27 Q52.03 45.730000000000004 52.03 44.49 V19.52 Q52.03 18.28 53.27 18.28 Z" fill="url(#a)"/>
  <path d="M15.22 47.95 L51.53 19.58 L48.78 16.05 L12.47 44.42 Z" fill="#0b1110" opacity="0.92"/>
  <path d="M15.22 47.95 L51.53 19.58 L48.78 16.05 L12.47 44.42 Z" fill="none" stroke="#d6ff4b" stroke-width="1.152" opacity="0.55"/>
</svg>
