<?xml version="1.0" encoding="UTF-8"?>
<svg xmlns="http://www.w3.org/2000/svg" viewBox="0 0 512 512" role="img" aria-label="Silence Remover">
  <defs>
    <linearGradient id="g" x1="0" y1="0" x2="1" y2="1">
      <stop offset="0%" stop-color="#17211e"/>
      <stop offset="100%" stop-color="#0b1110"/>
    </linearGradient>
    <linearGradient id="a" x1="0" y1="0" x2="0" y2="1">
      <stop offset="0%" stop-color="#d6ff4b"/>
      <stop offset="100%" stop-color="#7dffc3"/>
    </linearGradient>
  </defs>
  <rect width="512" height="512" rx="112.64" fill="url(#g)"/>
  <path d="M78.13000000000001 115.92 H93.58 Q95.78 115.92 95.78 118.12 V393.89000000000004 Q95.78 396.09000000000003 93.58 396.09000000000003 H78.13000000000001 Q75.93 396.09000000000003 75.93 393.89000000000004 V118.12 Q75.93 115.92 78.13000000000001 115.92 Z M106.49000000000001 167.06 H121.94000000000001 Q124.14000000000001 167.06 124.14000000000001 169.26 V342.73 Q124.14000000000001 344.93 121.94000000000001 344.93 H106.49000000000001 Q104.29 344.93 104.29 342.73 V169.26 Q104.29 167.06 106.49000000000001 167.06 Z M134.85 123.4 H150.3 Q152.5 123.4 152.5 125.60000000000001 V386.40000000000003 Q152.5 388.6 150.3 388.6 H134.85 Q132.65 388.6 132.65 386.40000000000003 V125.60000000000001 Q132.65 123.4 134.85 123.4 Z M163.2 154.89 H178.65 Q180.85 154.89 180.85 157.08999999999997 V354.90000000000003 Q180.85 357.1 178.65 357.1 H163.2 Q161 357.1 161 354.90000000000003 V157.08999999999997 Q161 154.89 163.2 154.89 Z M191.56 162.5 H207.01000000000002 Q209.21 162.5 209.21 164.7 V347.31 Q209.21 349.51 207.01000000000002 349.51 H191.56 Q189.36 349.51 189.36 347.31 V164.7 Q189.36 162.5 191.56 162.5 Z M219.92 235.97 H235.37 Q237.57 235.97 237.57 238.17 V273.83 Q237.57 276.03 235.37 276.03 H219.92 Q217.72 276.03 217.72 273.83 V238.17 Q217.72 235.97 219.92 235.97 Z M248.28 233.97 H263.73 Q265.93 233.97 265.93 236.17 V275.82 Q265.93 278.02 263.73 278.02 H248.28 Q246.08 278.02 246.08 275.82 V236.17 Q246.08 233.97 248.28 233.97 Z M276.63 240.92 H292.08000000000004 Q294.28000000000003 240.92 294.28000000000003 243.11999999999998 V268.87 Q294.28000000000003 271.07 292.08000000000004 271.07 H276.63 Q274.43 271.07 274.43 268.87 V243.11999999999998 Q274.43 240.92 276.63 240.92 Z M304.99 180.28 H320.44000000000005 Q322.64000000000004 180.28 322.64000000000004 182.48 V329.51000000000005 Q322.64000000000004 331.71000000000004 320.44000000000005 331.71000000000004 H304.99 Q302.79 331.71000000000004 302.79 329.51000000000005 V182.48 Q302.79 180.28 304.99 180.28 Z M333.34999999999997 161.79 H348.8 Q351 161.79 351 163.98999999999998 V348.02000000000004 Q351 350.22 348.8 350.22 H333.34999999999997 Q331.15 350.22 331.15 348.02000000000004 V163.98999999999998 Q331.15 161.79 333.34999999999997 161.79 Z M361.7 135.4 H377.15000000000003 Q379.35 135.4 379.35 137.6 V374.40000000000003 Q379.35 376.6 377.15000000000003 376.6 H361.7 Q359.5 376.6 359.5 374.40000000000003 V137.6 Q359.5 135.4 361.7 135.4 Z M390.06 127.14 H405.51000000000005 Q407.71000000000004 127.14 407.71000000000004 129.34 V382.66 Q407.71000000000004 384.86 405.51000000000005 384.86 H390.06 Q387.86 384.86 387.86 382.66 V129.34 Q387.86 127.14 390.06 127.14 Z M418.42 146.21 H433.87000000000006 Q436.07000000000005 146.21 436.07000000000005 148.41 V363.59000000000003 Q436.07000000000005 365.79 433.87000000000006 365.79 H418.42 Q416.22 365.79 416.22 363.59000000000003 V148.41 Q416.22 146.21 418.42 146.21 Z" fill="url(#a)"/>
  <path d="M121.79 383.6 L412.28 156.64 L390.21 128.4 L99.72 355.36 Z" fill="#0b1110" opacity="0.92"/>
  <path d="M121.79 383.6 L412.28 156.64 L390.21 128.4 L99.72 355.36 Z" fill="none" stroke="#d6ff4b" stroke-width="9.216" opacity="0.55"/>
</svg>
