<?xml version="1.0" encoding="UTF-8"?>
<svg xmlns="http://www.w3.org/2000/svg" viewBox="0 0 720 160" role="img" aria-label="Silence Remover by Puhulab">
  <defs>
    <linearGradient id="g" x1="0" y1="0" x2="1" y2="1">
      <stop offset="0%" stop-color="#17211e"/>
      <stop offset="100%" stop-color="#0b1110"/>
    </linearGradient>
    <linearGradient id="a" x1="0" y1="0" x2="0" y2="1">
      <stop offset="0%" stop-color="#d6ff4b"/>
      <stop offset="100%" stop-color="#7dffc3"/>
    </linearGradient>
  </defs>
  <rect x="16" y="16" width="128" height="128" rx="28" fill="url(#g)"/>
  <path d="M33.17 34 H33.28999999999999 Q35.489999999999995 34 35.489999999999995 36.2 V107.8 Q35.489999999999995 110 33.28999999999999 110 H33.17 Q30.97 110 30.97 107.8 V36.2 Q30.97 34 33.17 34 Z M39.63 47.87 H39.75 Q41.95 47.87 41.95 50.07 V93.92 Q41.95 96.12 39.75 96.12 H39.63 Q37.43 96.12 37.43 93.92 V50.07 Q37.43 47.87 39.63 47.87 Z M46.09 36.03 H46.209999999999994 Q48.41 36.03 48.41 38.230000000000004 V105.77 Q48.41 107.97 46.209999999999994 107.97 H46.09 Q43.89 107.97 43.89 105.77 V38.230000000000004 Q43.89 36.03 46.09 36.03 Z M52.550000000000004 44.57 H52.67 Q54.870000000000005 44.57 54.870000000000005 46.77 V97.22 Q54.870000000000005 99.42 52.67 99.42 H52.550000000000004 Q50.35 99.42 50.35 97.22 V46.77 Q50.35 44.57 52.550000000000004 44.57 Z M59.02 46.64 H59.14 Q61.34 46.64 61.34 48.84 V95.17 Q61.34 97.37 59.14 97.37 H59.02 Q56.82 97.37 56.82 95.17 V48.84 Q56.82 46.64 59.02 46.64 Z M65.48 66.57 H65.6 Q67.8 66.57 67.8 68.77 V75.24 Q67.8 77.44 65.6 77.44 H65.48 Q63.28 77.44 63.28 75.24 V68.77 Q63.28 66.57 65.48 66.57 Z M71.94 66.02 H72.05999999999999 Q74.25999999999999 66.02 74.25999999999999 68.22 V75.77 Q74.25999999999999 77.97 72.05999999999999 77.97 H71.94 Q69.74 77.97 69.74 75.77 V68.22 Q69.74 66.02 71.94 66.02 Z M78.4 67.91 H78.52 Q80.72 67.91 80.72 70.11 V73.89 Q80.72 76.09 78.52 76.09 H78.4 Q76.2 76.09 76.2 73.89 V70.11 Q76.2 67.91 78.4 67.91 Z M84.86 51.46 H84.97999999999999 Q87.17999999999999 51.46 87.17999999999999 53.660000000000004 V90.33999999999999 Q87.17999999999999 92.53999999999999 84.97999999999999 92.53999999999999 H84.86 Q82.66 92.53999999999999 82.66 90.33999999999999 V53.660000000000004 Q82.66 51.46 84.86 51.46 Z M91.32000000000001 46.44 H91.44 Q93.64 46.44 93.64 48.64 V95.35 Q93.64 97.55 91.44 97.55 H91.32000000000001 Q89.12 97.55 89.12 95.35 V48.64 Q89.12 46.44 91.32000000000001 46.44 Z M97.78 39.28 H97.89999999999999 Q100.1 39.28 100.1 41.480000000000004 V102.51 Q100.1 104.71000000000001 97.89999999999999 104.71000000000001 H97.78 Q95.58 104.71000000000001 95.58 102.51 V41.480000000000004 Q95.58 39.28 97.78 39.28 Z M104.25 37.04 H104.36999999999999 Q106.57 37.04 106.57 39.24 V104.74999999999999 Q106.57 106.94999999999999 104.36999999999999 106.94999999999999 H104.25 Q102.05 106.94999999999999 102.05 104.74999999999999 V39.24 Q102.05 37.04 104.25 37.04 Z M110.71000000000001 42.22 H110.83 Q113.03 42.22 113.03 44.42 V99.58999999999999 Q113.03 101.78999999999999 110.83 101.78999999999999 H110.71000000000001 Q108.51 101.78999999999999 108.51 99.58999999999999 V44.42 Q108.51 42.22 110.71000000000001 42.22 Z" fill="url(#a)"/>
  <path d="M47.46 111.11 L118.06 55.95 L112.54 48.89 L41.94 104.05 Z" fill="#0b1110" opacity="0.92"/>
  <g fill="#eef3ea" font-family="Archivo Black, Arial Black, sans-serif">
    <text x="172" y="78" font-size="44" letter-spacing="-1.2">Silence Remover</text>
    <text x="172" y="118" font-size="20" fill="#9aaca2" letter-spacing="2" font-family="Figtree, Arial, sans-serif">BY PUHULAB</text>
  </g>
</svg>
